<?xml version="1.0" encoding="utf-8"?>
<!-- Generator: Adobe Illustrator 19.0.0, SVG Export Plug-In . SVG Version: 6.00 Build 0)  -->
<svg version="1.1" id="Calque_1" xmlns="http://www.w3.org/2000/svg" xmlns:xlink="http://www.w3.org/1999/xlink" x="0px" y="0px"
	 viewBox="-70 15.9 100 125" style="enable-background:new -70 15.9 100 125;" xml:space="preserve">
<path d="M27.7,54.6c-0.4-1.2-1.6-2-2.8-2H-6l-11.2-30.2c-0.4-1.2-1.6-2-2.8-2c-1.3,0-2.4,0.8-2.8,2L-34,52.6h-30.9
	c-1.3,0-2.4,0.8-2.8,2c-0.4,1.2,0,2.5,0.9,3.3l24.1,19.6l-8,30.1c-0.3,1.2,0.1,2.5,1.1,3.2c0.5,0.4,1.1,0.6,1.8,0.6
	c0.6,0,1.1-0.2,1.6-0.5L-20,94l26.1,16.9c1,0.7,2.4,0.6,3.4-0.1s1.5-2,1.1-3.2l-8-30.1l24.2-19.6C27.8,57.1,28.1,55.8,27.7,54.6z
	 M-36.3,77.2c0.3-1.1-0.1-2.4-1-3.1l-19.1-15.5h24.6c1.3,0,2.4-0.8,2.8-2l9-24.5l9.1,24.6c0.4,1.2,1.6,2,2.8,2h24.6L-2.6,74.1
	c-0.9,0.7-1.3,2-1,3.1l6.5,24.4l-21.3-13.7c-0.5-0.3-1.1-0.5-1.6-0.5s-1.1,0.2-1.6,0.5l-21.2,13.8L-36.3,77.2z"/>
</svg>
