<?xml version="1.0" encoding="utf-8"?>
<!-- Generator: Adobe Illustrator 19.0.0, SVG Export Plug-In . SVG Version: 6.00 Build 0)  -->
<svg version="1.1" id="Calque_1" xmlns="http://www.w3.org/2000/svg" xmlns:xlink="http://www.w3.org/1999/xlink" x="0px" y="0px"
	 viewBox="-104 57.9 32 40" style="enable-background:new -104 57.9 32 40;" xml:space="preserve">
<g>
	<path d="M-80,73.4c-0.6,0-1,0.4-1,1v6h-14v-6c0-0.6-0.4-1-1-1s-1,0.4-1,1v7c0,0.6,0.4,1,1,1h16c0.6,0,1-0.4,1-1v-7
		C-79,73.8-79.4,73.4-80,73.4z"/>
	<path d="M-88,65.4c-0.6,0-1,0.4-1,1v6.4l-1.1-1.1c-0.4-0.4-1-0.4-1.4,0s-0.4,1,0,1.4l2.8,2.8c0.2,0.2,0.5,0.3,0.7,0.3
		c0.3,0,0.5-0.1,0.7-0.3l2.8-2.8c0.4-0.4,0.4-1,0-1.4s-1-0.4-1.4,0l-1.1,1.2v-6.5C-87,65.9-87.5,65.4-88,65.4z"/>
</g>
</svg>
