<?xml version="1.0" encoding="utf-8"?>
<!-- Generator: Adobe Illustrator 19.0.0, SVG Export Plug-In . SVG Version: 6.00 Build 0)  -->
<svg version="1.1" id="Calque_1" xmlns="http://www.w3.org/2000/svg" xmlns:xlink="http://www.w3.org/1999/xlink" x="0px" y="0px"
	 viewBox="-70 15.9 100 125" style="enable-background:new -70 15.9 100 125;" xml:space="preserve">
<title>Download s18.4</title>
<desc>Created with Sketch.</desc>
<g transform="matrix(0, -1, 1, 0, -0.000004, 100)">
	<g>
		<path d="M34.1-50c16.6,0,30,13.4,30,30s-13.4,30-30,30s-30-13.4-30-30S17.5-50,34.1-50z M32-5.9c1.2,1.2,3,1.2,4.2,0l9.9-10.2
			c2.8-2.8-1.4-7.1-4.2-4.2l-3.4,3.5c-0.8,0.8-1.4,0.5-1.4-0.6v-13.8c0-1.7-1.3-3-3-3c-1.7,0-3,1.3-3,3v13.8c0,1.1-0.6,1.4-1.4,0.6
			l-3.4-3.5c-2.8-2.8-7.1,1.4-4.2,4.2L32-5.9z"/>
	</g>
</g>
</svg>
