<?xml version="1.0" encoding="utf-8"?>
<!-- Generator: Adobe Illustrator 19.0.0, SVG Export Plug-In . SVG Version: 6.00 Build 0)  -->
<svg version="1.1" id="Calque_1" xmlns="http://www.w3.org/2000/svg" xmlns:xlink="http://www.w3.org/1999/xlink" x="0px" y="0px"
	 viewBox="-70 15.9 100 125" style="enable-background:new -70 15.9 100 125;" xml:space="preserve">
<title>03</title>
<path d="M-59.3,45.2v41.5h19.2l34,17.4V27.8l-34,17.4H-59.3z M-42.3,80.7h-11V51.2h11V80.7z M-12.2,94.2l-24.1-12.3v-32l24.1-12.3
	L-12.2,94.2z"/>
<path d="M0.8,47.5v6c6.9,0,12.5,5.6,12.5,12.5c0,6.9-5.6,12.5-12.5,12.5c0,0,0,0,0,0v6c10.2,0,18.5-8.3,18.5-18.5
	S11.1,47.5,0.8,47.5C0.9,47.5,0.9,47.5,0.8,47.5z"/>
</svg>
