<?xml version="1.0" encoding="utf-8"?>
<!-- Generator: Adobe Illustrator 19.0.0, SVG Export Plug-In . SVG Version: 6.00 Build 0)  -->
<svg version="1.1"
	 id="Calque_1" xmlns:dc="http://purl.org/dc/elements/1.1/" xmlns:rdf="http://www.w3.org/1999/02/22-rdf-syntax-ns#" xmlns:cc="http://creativecommons.org/ns#" xmlns:sodipodi="http://sodipodi.sourceforge.net/DTD/sodipodi-0.dtd" xmlns:inkscape="http://www.inkscape.org/namespaces/inkscape" xmlns:svg="http://www.w3.org/2000/svg"
	 xmlns="http://www.w3.org/2000/svg" xmlns:xlink="http://www.w3.org/1999/xlink" x="0px" y="0px" viewBox="-70 15.9 100 125"
	 style="enable-background:new -70 15.9 100 125;" xml:space="preserve">
<g transform="translate(0,-952.36218)">
	<path d="M-20,986.3c6.7,0,13.3,2.5,18.4,7.6c3.6,3.6,5.9,8.1,6.9,12.7c10.6,1.6,18.7,10.7,18.7,21.7c0,12.1-9.9,22-22,22h-47
		c-10.5,0-19-8.5-19-19c0-10.2,8-18.4,18.1-18.9c0-6.7,2.4-13.4,7.5-18.5C-33.3,988.8-26.7,986.3-20,986.3L-20,986.3z M-20,990.3
		c-5.6,0-11.3,2.1-15.6,6.4c-4.8,4.8-6.9,11.1-6.3,17.4c0.1,1.1-0.7,2.1-1.8,2.2c-0.1,0-0.1,0-0.2,0H-45c-8.3,0-15,6.7-15,15
		c0,8.3,6.7,15,15,15H2c10,0,18-8,18-18c0-9.5-7.3-17.2-16.5-18c-0.9-0.1-1.7-0.8-1.8-1.7c-0.7-4.4-2.7-8.6-6.1-11.9
		C-8.7,992.4-14.4,990.3-20,990.3L-20,990.3z"/>
</g>
</svg>
