<?xml version="1.0" encoding="utf-8"?>
<!-- Generator: Adobe Illustrator 19.0.0, SVG Export Plug-In . SVG Version: 6.00 Build 0)  -->
<svg version="1.1" id="Calque_1" xmlns="http://www.w3.org/2000/svg" xmlns:xlink="http://www.w3.org/1999/xlink" x="0px" y="0px"
	 viewBox="-70 15.9 100 125" style="enable-background:new -70 15.9 100 125;" xml:space="preserve">
<g>
	<path d="M-20,63.6c8.8,0,16-7.2,16-16s-7.2-16-16-16s-16,7.2-16,16S-28.8,63.6-20,63.6z M-20,35.6c6.6,0,12,5.4,12,12
		s-5.4,12-12,12s-12-5.4-12-12S-26.6,35.6-20,35.6z"/>
	<path d="M-43.2,100.2H3.1c1,0,2.1-0.4,2.8-1.2c0.7-0.8,1.1-1.9,1-3c-1-15.3-12.6-26.8-27-26.8S-46,80.8-47,96.1
		c-0.1,1.1,0.3,2.2,1,3C-45.2,99.8-44.2,100.2-43.2,100.2z M-20,73.2c12.2,0,22.1,9.9,23,23h-46C-42.1,83.1-32.2,73.2-20,73.2z"/>
</g>
</svg>
