<?xml version="1.0" encoding="utf-8"?>
<!-- Generator: Adobe Illustrator 19.0.0, SVG Export Plug-In . SVG Version: 6.00 Build 0)  -->
<svg version="1.1" id="Calque_1" xmlns="http://www.w3.org/2000/svg" xmlns:xlink="http://www.w3.org/1999/xlink" x="0px" y="0px"
	 viewBox="-70 15.9 100 125" style="enable-background:new -70 15.9 100 125;" xml:space="preserve">
<path d="M25,106.7L0.6,82.3c5.8-6.8,9-15.4,9-24.5c0-10.1-3.9-19.6-11.1-26.7C-8.6,23.9-18,20-28.1,20c-10.1,0-19.6,3.9-26.7,11.1
	c-7.1,7.1-11.1,16.6-11.1,26.7s3.9,19.6,11.1,26.7s16.6,11.1,26.7,11.1c9.1,0,17.7-3.2,24.5-9l24.4,24.4c0.6,0.6,1.4,0.9,2.1,0.9
	s1.5-0.3,2.1-0.9C26.2,109.8,26.2,107.9,25,106.7z M-28.1,89.6c-8.5,0-16.5-3.3-22.5-9.3c-6-6-9.3-14-9.3-22.5s3.3-16.5,9.3-22.5
	c6-6,14-9.3,22.5-9.3c8.5,0,16.5,3.3,22.5,9.3c6,6,9.3,14,9.3,22.5S0.3,74.2-5.7,80.2C-11.7,86.2-19.6,89.6-28.1,89.6z"/>
</svg>
