<?xml version="1.0" encoding="utf-8"?>
<!-- Generator: Adobe Illustrator 19.0.0, SVG Export Plug-In . SVG Version: 6.00 Build 0)  -->
<svg version="1.1" id="Calque_1" xmlns="http://www.w3.org/2000/svg" xmlns:xlink="http://www.w3.org/1999/xlink" x="0px" y="0px"
	 viewBox="-70 15.9 100 125" style="enable-background:new -70 15.9 100 125;" xml:space="preserve">
<title>127all</title>
<path d="M-20,29.3c-20.2,0-36.7,16.4-36.7,36.6c0,20.2,16.4,36.7,36.6,36.7s36.7-16.4,36.7-36.6c0-9.7-3.9-19-10.7-25.9
	C-0.9,33.1-10.3,29.2-20,29.3z M3.1,89c-12.8,12.7-33.4,12.7-46.2,0s-12.7-33.4,0-46.2s33.4-12.7,46.2,0c6.1,6.1,9.6,14.4,9.6,23.1
	C12.7,74.6,9.2,82.9,3.1,89z"/>
<path d="M-6.9,52.8c-0.8-0.8-2-0.8-2.8,0c0,0,0,0,0,0L-20,63.1l-10.2-10.2c-0.8-0.8-2-0.8-2.8,0s-0.8,2,0,2.8l10.2,10.3l-10.2,10.2
	c-0.8,0.8-0.8,2,0,2.8c0.8,0.8,2,0.8,2.8,0L-20,68.7L-9.8,79c0.8,0.8,2,0.8,2.8,0c0.8-0.8,0.8-2,0-2.8l-10.2-10.2l10.2-10.3
	C-6.1,54.9-6.1,53.6-6.9,52.8C-6.9,52.8-6.9,52.8-6.9,52.8z"/>
</svg>
