<?xml version="1.0" encoding="utf-8"?>
<!-- Generator: Adobe Illustrator 19.0.0, SVG Export Plug-In . SVG Version: 6.00 Build 0)  -->
<svg version="1.1" id="Calque_1" xmlns="http://www.w3.org/2000/svg" xmlns:xlink="http://www.w3.org/1999/xlink" x="0px" y="0px"
	 viewBox="135 -243.1 512 640" style="enable-background:new 135 -243.1 512 640;" xml:space="preserve">
<g>
	<g>
		<path d="M452.9-183.6c-11-5.9-24.4-5.3-34.8,1.7L272.5-84.9h-55.2c-14.2,0-25.8,10.9-27,24.8h-7.8c-26.2,0-47.5,21.3-47.5,47.5
			v50.9c0,26.2,21.3,47.5,47.5,47.5h7.8c1.2,13.9,12.8,24.8,27,24.8h55.2l145.6,97.1c5.7,3.8,12.2,5.7,18.8,5.7c5.5,0,11-1.3,16-4
			c11-5.9,17.9-17.4,17.9-29.9v-333.4C470.8-166.3,464-177.7,452.9-183.6z M190.2,59h-7.7c-11.4,0-20.6-9.3-20.6-20.6v-50.9
			c0-11.4,9.3-20.6,20.6-20.6h7.7V59z M263.1,83.8L263.1,83.8h-45.8c-0.1,0-0.2-0.1-0.2-0.2V72.4V-57.8c0-0.1,0.1-0.2,0.2-0.2h45.8
			V83.8z M443.9,179.6c0,3.8-2.6,5.6-3.7,6.2c-1.1,0.6-4,1.8-7.2-0.3L290,90V-64.2l143-95.4c3.1-2.1,6.1-0.9,7.2-0.3
			c1.1,0.6,3.7,2.4,3.7,6.2V179.6z"/>
	</g>
</g>
<g>
	<g>
		<path d="M606.6,12.9L643.5-24c4.7-4.7,4.7-12.4,0-17.1c-4.7-4.7-12.4-4.7-17.1,0L589.4-4.2l-36.9-36.9c-4.7-4.7-12.4-4.7-17.1,0
			c-4.7,4.7-4.7,12.4,0,17.1l36.9,36.9l-36.9,36.9c-4.7,4.7-4.7,12.4,0,17.1c2.4,2.4,5.5,3.5,8.6,3.5c3.1,0,6.2-1.2,8.6-3.5
			L589.4,30l36.9,36.9c2.4,2.4,5.5,3.5,8.6,3.5c3.1,0,6.2-1.2,8.6-3.5c4.7-4.7,4.7-12.4,0-17.1L606.6,12.9z"/>
	</g>
</g>
</svg>
