<?xml version="1.0" encoding="utf-8"?>
<!-- Generator: Adobe Illustrator 19.0.0, SVG Export Plug-In . SVG Version: 6.00 Build 0)  -->
<svg version="1.1" id="Calque_1" xmlns="http://www.w3.org/2000/svg" xmlns:xlink="http://www.w3.org/1999/xlink" x="0px" y="0px"
	 viewBox="-70 15.9 100 125" style="enable-background:new -70 15.9 100 125;" xml:space="preserve">
<path d="M1,61.9h-42c-2.2,0-4,1.8-4,4c0,2.2,1.8,4,4,4H1c2.2,0,4-1.8,4-4C5,63.7,3.2,61.9,1,61.9z M1,67.9h-42c-1.1,0-2-0.9-2-2
	s0.9-2,2-2H1c1.1,0,2,0.9,2,2S2.1,67.9,1,67.9z M1,75.9h-42c-2.2,0-4,1.8-4,4c0,2.2,1.8,4,4,4H1c2.2,0,4-1.8,4-4S3.2,75.9,1,75.9z
	 M1,81.9h-42c-1.1,0-2-0.9-2-2s0.9-2,2-2H1c1.1,0,2,0.9,2,2S2.1,81.9,1,81.9z M-41,55.9H1c2.2,0,4-1.8,4-4s-1.8-4-4-4h-42
	c-2.2,0-4,1.8-4,4S-43.2,55.9-41,55.9z M-41,49.9H1c1.1,0,2,0.9,2,2s-0.9,2-2,2h-42c-1.1,0-2-0.9-2-2S-42.1,49.9-41,49.9z"/>
</svg>
