<?xml version="1.0" encoding="utf-8"?>
<!-- Generator: Adobe Illustrator 19.0.0, SVG Export Plug-In . SVG Version: 6.00 Build 0)  -->
<svg version="1.1" id="Calque_1" xmlns="http://www.w3.org/2000/svg" xmlns:xlink="http://www.w3.org/1999/xlink" x="0px" y="0px"
	 viewBox="-94 45.9 52 65" style="enable-background:new -94 45.9 52 65;" xml:space="preserve">
<g>
	<g>
		<g>
			<g>
				<g>
					<path d="M-54.1,95.9c-2.1,0-4.6-0.6-7.5-1.8c-5.3-2.3-11.3-6.5-16.6-11.9C-89.8,70.6-95,57.8-90.2,53l3.9-3.9
						c0.8-0.8,1.8-1.2,2.9-1.2s2.1,0.4,2.9,1.2l7.2,7.2c0.8,0.8,1.2,1.8,1.2,2.9s-0.4,2.1-1.2,2.9l-2.4,2.4
						c-0.5,0.5-0.4,1.9,0.3,3.6c0.9,2.1,2.5,4.4,4.7,6.5c2.1,2.1,4.4,3.8,6.5,4.7c1.7,0.7,3.1,0.8,3.6,0.3l2.4-2.4
						c0.8-0.8,1.8-1.2,2.9-1.2c1.1,0,2.1,0.4,2.9,1.2l7.2,7.2c1.6,1.6,1.6,4.2,0,5.9l-3.9,3.9C-50.3,95.3-52,95.9-54.1,95.9z
						 M-83.4,49.9c-0.6,0-1.1,0.2-1.5,0.6l-3.9,3.9c-3.5,3.5,0.5,14.9,12,26.3c5.2,5.2,10.9,9.3,16,11.5c4.8,2.1,8.5,2.2,10.3,0.5
						l3.9-3.9c0.8-0.8,0.8-2.2,0-3l-7.2-7.2l0,0c-0.8-0.8-2.2-0.8-3,0l-2.4,2.4c-1.2,1.2-3.3,1.2-5.8,0.1c-2.3-1-4.8-2.8-7.1-5.1
						c-2.3-2.3-4.1-4.8-5.1-7.1c-1.1-2.6-1.1-4.6,0.1-5.8l2.4-2.4c0.4-0.4,0.6-0.9,0.6-1.5c0-0.6-0.2-1.1-0.6-1.5l-7.2-7.2
						C-82.3,50.1-82.8,49.9-83.4,49.9z"/>
				</g>
			</g>
		</g>
		<g>
			<g>
				<path d="M-48.2,92.8c-0.3,0-0.5-0.1-0.7-0.3l-11.6-11.6c-0.4-0.4-0.4-1,0-1.4s1-0.4,1.4,0l11.6,11.6c0.4,0.4,0.4,1,0,1.4
					C-47.7,92.7-48,92.8-48.2,92.8z"/>
			</g>
		</g>
		<g>
			<g>
				<path d="M-76.3,64.7c-0.3,0-0.5-0.1-0.7-0.3l-11.6-11.6c-0.4-0.4-0.4-1,0-1.4s1-0.4,1.4,0L-75.6,63c0.4,0.4,0.4,1,0,1.4
					C-75.8,64.6-76,64.7-76.3,64.7z"/>
			</g>
		</g>
	</g>
</g>
</svg>
