<?xml version="1.0" encoding="utf-8"?>
<!-- Generator: Adobe Illustrator 19.0.0, SVG Export Plug-In . SVG Version: 6.00 Build 0)  -->
<svg version="1.1"
	 id="Calque_1" xmlns:dc="http://purl.org/dc/elements/1.1/" xmlns:rdf="http://www.w3.org/1999/02/22-rdf-syntax-ns#" xmlns:cc="http://creativecommons.org/ns#" xmlns:sodipodi="http://sodipodi.sourceforge.net/DTD/sodipodi-0.dtd" xmlns:inkscape="http://www.inkscape.org/namespaces/inkscape" xmlns:svg="http://www.w3.org/2000/svg"
	 xmlns="http://www.w3.org/2000/svg" xmlns:xlink="http://www.w3.org/1999/xlink" x="0px" y="0px" viewBox="-70 15.9 100 125"
	 style="enable-background:new -70 15.9 100 125;" xml:space="preserve">
<g transform="translate(0,-952.36218)">
	<path d="M-20.1,986.3c-0.4,0-0.8,0.1-1.2,0.4l-38,30c-0.9,0.7-1,2-0.3,2.8c0.6,0.8,2,1,2.8,0.3l36.8-29l36.8,29
		c0.8,0.7,2.2,0.5,2.8-0.3c0.6-0.8,0.6-2.2-0.3-2.8L5,1005.4v-17.2c0-1.1-0.9-2-2-2h-8c-1.1,0-2,0.9-2,2v7.7l-11.8-9.3
		C-19.2,986.4-19.6,986.3-20.1,986.3L-20.1,986.3z M-3,990.3h4v12l-4-3.2V990.3z M-45,1013.2l-4,3.2v31.9c0,1.1,0.9,2,2,2h18
		c1.1,0,2-0.9,2-2v-11c0-3.9,3.1-7,7-7s7,3.1,7,7v11c0,1.1,0.9,2,2,2H7c1.1,0,2-0.9,2-2v-31.9l-4-3.2v33.1H-9v-9c0-6.1-4.9-11-11-11
		s-11,4.9-11,11v9h-14V1013.2z"/>
</g>
</svg>
