<?xml version="1.0" encoding="utf-8"?>
<!-- Generator: Adobe Illustrator 19.0.0, SVG Export Plug-In . SVG Version: 6.00 Build 0)  -->
<svg version="1.1"
	 id="Calque_1" xmlns:dc="http://purl.org/dc/elements/1.1/" xmlns:rdf="http://www.w3.org/1999/02/22-rdf-syntax-ns#" xmlns:cc="http://creativecommons.org/ns#" xmlns:sodipodi="http://sodipodi.sourceforge.net/DTD/sodipodi-0.dtd" xmlns:inkscape="http://www.inkscape.org/namespaces/inkscape" xmlns:svg="http://www.w3.org/2000/svg"
	 xmlns="http://www.w3.org/2000/svg" xmlns:xlink="http://www.w3.org/1999/xlink" x="0px" y="0px" viewBox="-70 15.9 100 125"
	 style="enable-background:new -70 15.9 100 125;" xml:space="preserve">
<g transform="translate(0,-952.36218)">
	<path d="M-10,990.3c0-5.5-4.5-10-10-10c-5.5,0-10,4.5-10,10c0,5.5,4.5,10,10,10C-14.5,1000.3-10,995.8-10,990.3z M-10,1018.3
		c0-5.5-4.5-10-10-10c-5.5,0-10,4.5-10,10c0,5.5,4.5,10,10,10C-14.5,1028.3-10,1023.8-10,1018.3z M-10,1046.3c0-5.5-4.5-10-10-10
		c-5.5,0-10,4.5-10,10s4.5,10,10,10C-14.5,1056.3-10,1051.8-10,1046.3z M-14,990.3c0,3.3-2.7,6-6,6c-3.3,0-6-2.7-6-6
		c0-3.3,2.7-6,6-6C-16.7,984.3-14,986.9-14,990.3z M-14,1018.3c0,3.3-2.7,6-6,6c-3.3,0-6-2.7-6-6c0-3.3,2.7-6,6-6
		C-16.7,1012.3-14,1014.9-14,1018.3z M-14,1046.3c0,3.3-2.7,6-6,6c-3.3,0-6-2.7-6-6c0-3.3,2.7-6,6-6
		C-16.7,1040.3-14,1042.9-14,1046.3z"/>
</g>
</svg>
