<?xml version="1.0" encoding="utf-8"?>
<!-- Generator: Adobe Illustrator 19.0.0, SVG Export Plug-In . SVG Version: 6.00 Build 0)  -->
<svg version="1.1" id="Calque_1" xmlns="http://www.w3.org/2000/svg" xmlns:xlink="http://www.w3.org/1999/xlink" x="0px" y="0px"
	 viewBox="-70 15.9 100 125" style="enable-background:new -70 15.9 100 125;" xml:space="preserve">
<path d="M-20,37.4c-15.4,0-28,12.6-28,28s12.6,28,28,28s28-12.6,28-28S-4.6,37.4-20,37.4z M-20,91.4c-14.3,0-26-11.7-26-26
	s11.7-26,26-26s26,11.7,26,26S-5.7,91.4-20,91.4z M-11.2,58.1c0.9,4.7-1.8,9.2-6.4,10.5c-0.8,0.2-1.4,1-1.4,1.9v1.4c0,1.3-2,1.3-2,0
	v-1.4c0-1.8,1.2-3.4,2.9-3.8c3.5-1,5.7-4.5,5-8.2c-0.5-2.7-2.7-4.9-5.4-5.4c-4-0.8-8.5,2.1-8.5,6.8c0,1.3-2,1.3-2,0
	c0-5.6,5.2-9.8,10.8-8.8C-14.7,51.8-11.9,54.6-11.2,58.1z M-18,78.9c0,1.1-0.9,2-2,2s-2-0.9-2-2s0.9-2,2-2S-18,77.8-18,78.9z"/>
</svg>
