<?xml version="1.0" encoding="utf-8"?>
<!-- Generator: Adobe Illustrator 19.0.0, SVG Export Plug-In . SVG Version: 6.00 Build 0)  -->
<svg version="1.1" id="Calque_1" xmlns="http://www.w3.org/2000/svg" xmlns:xlink="http://www.w3.org/1999/xlink" x="0px" y="0px"
	 viewBox="-70 15.9 100 125" style="enable-background:new -70 15.9 100 125;" xml:space="preserve">
<title>50 all</title>
<path d="M9.6,60.8C6.8,52.4,0.5,45.7-7.6,42.2c-7.4-3.1-15.7-3.3-23.3-0.5l3.3-8.9c0.6-1.6-0.2-3.3-1.8-3.9
	c-1.6-0.6-3.3,0.2-3.9,1.8l-5.9,15.9l-0.1,0.2c-0.4,1.4,0.3,3,1.6,3.6l15.2,7.3c1.5,0.8,3.3,0.2,4-1.3c0.8-1.5,0.2-3.3-1.3-4
	c0,0-0.1,0-0.2-0.1l-9.8-4.7c6.3-2.5,13.3-2.4,19.5,0.1c6.6,2.8,11.7,8.2,14,15c2.1,6.1,2,12.7-0.4,18.6C-1.3,92.8-16,101-30.1,95
	c-8.9-3.8-14.9-12.3-15.4-22c-0.1-1.7-1.6-2.9-3.2-2.8c-1.7,0.1-2.9,1.6-2.8,3.2c0.9,12.3,8,22.4,19,27.1c3.8,1.6,8,2.5,12.1,2.5
	c12.7-0.1,24.2-7.6,29.4-19.2C12.1,76.4,12.3,68.3,9.6,60.8z"/>
</svg>
