<?xml version="1.0" encoding="utf-8"?>
<!-- Generator: Adobe Illustrator 19.0.0, SVG Export Plug-In . SVG Version: 6.00 Build 0)  -->
<svg version="1.1" id="Calque_1" xmlns="http://www.w3.org/2000/svg" xmlns:xlink="http://www.w3.org/1999/xlink" x="0px" y="0px"
	 viewBox="-70 15.9 100 125" style="enable-background:new -70 15.9 100 125;" xml:space="preserve">
<g>
	<g>
		<path d="M16.2,106h-72.4c-3.2,0-6-1.6-7.6-4.4c-1.6-2.7-1.6-6,0-8.7l36.2-62.8c1.6-2.7,4.4-4.4,7.6-4.4l0,0c3.2,0,6,1.6,7.6,4.4
			l36.2,62.8c1.6,2.7,1.6,6,0,8.7C22.2,104.4,19.4,106,16.2,106z M-58.1,96.2c-0.6,1-0.2,1.9,0,2.2c0.2,0.3,0.8,1.1,1.9,1.1h72.5
			c1.1,0,1.7-0.8,1.9-1.1c0.2-0.3,0.6-1.2,0-2.2l-36.3-62.8c-0.6-1-1.5-1.1-1.9-1.1s-1.3,0.1-1.9,1.1L-58.1,96.2z"/>
		<path d="M-20,82.2c-1.8,0-3-1.5-3-3.3V51.4c0-1.8,1.2-3.3,3-3.3s3,1.5,3,3.3v27.5C-17,80.7-18.2,82.2-20,82.2z"/>
		<circle cx="-20" cy="90.7" r="3.9"/>
	</g>
</g>
</svg>
