<?xml version="1.0" encoding="utf-8"?>
<!-- Generator: Adobe Illustrator 19.0.0, SVG Export Plug-In . SVG Version: 6.00 Build 0)  -->
<svg version="1.1"
	 id="Calque_1" xmlns:dc="http://purl.org/dc/elements/1.1/" xmlns:rdf="http://www.w3.org/1999/02/22-rdf-syntax-ns#" xmlns:cc="http://creativecommons.org/ns#" xmlns:sodipodi="http://sodipodi.sourceforge.net/DTD/sodipodi-0.dtd" xmlns:inkscape="http://www.inkscape.org/namespaces/inkscape" xmlns:svg="http://www.w3.org/2000/svg"
	 xmlns="http://www.w3.org/2000/svg" xmlns:xlink="http://www.w3.org/1999/xlink" x="0px" y="0px" viewBox="-70 15.9 100 125"
	 style="enable-background:new -70 15.9 100 125;" xml:space="preserve">
<g transform="translate(0,-952.36218)">
	<path d="M4,973.3c-8.2,0-15,6.8-15,15c0,1.5,0.2,2.9,0.6,4.2l-24.3,14.1c-2.6-2-5.8-3.2-9.3-3.2c-8.2,0-15,6.8-15,15
		c0,8.2,6.8,15,15,15c3.5,0,6.7-1.2,9.3-3.3l24.3,14.1c-0.4,1.3-0.6,2.8-0.6,4.2c0,8.2,6.8,15,15,15s15-6.8,15-15
		c0-8.2-6.8-15-15-15c-4.6,0-8.8,2.1-11.6,5.5l-23.2-13.4c1.1-2.1,1.8-4.5,1.8-7.1c0-2.6-0.7-5-1.8-7.1c7-4.5,16.2-8.9,23.2-13.4
		c2.8,3.3,6.9,5.5,11.6,5.5c8.2,0,15-6.8,15-15S12.2,973.3,4,973.3L4,973.3z M4,979.3c5,0,9,4,9,9s-4,9-9,9s-9-4-9-9
		S-1,979.3,4,979.3z M-44,1009.3c5,0,9,4,9,9c0,5-4,9-9,9s-9-4-9-9C-53,1013.3-49,1009.3-44,1009.3z M4,1039.3c5,0,9,4,9,9s-4,9-9,9
		s-9-4-9-9S-1,1039.3,4,1039.3z"/>
</g>
</svg>
