<?xml version="1.0" encoding="utf-8"?>
<!-- Generator: Adobe Illustrator 19.0.0, SVG Export Plug-In . SVG Version: 6.00 Build 0)  -->
<svg version="1.1" id="Calque_1" xmlns="http://www.w3.org/2000/svg" xmlns:xlink="http://www.w3.org/1999/xlink" x="0px" y="0px"
	 viewBox="-70 15.9 100 125" style="enable-background:new -70 15.9 100 125;" xml:space="preserve">
<path d="M-27.3,101.4C-27.3,101.4-27.3,101.4-27.3,101.4c1.1,0,2-0.9,2-2l-1-56.8c0-1.1-0.9-2-2-2c-1.1,0-2,0.9-2,2l1,56.8
	C-29.3,100.5-28.4,101.4-27.3,101.4z M-12.7,101.4c1.1,0,2-0.9,2-2l1-56.8c0-1.1-0.9-2-2-2c0,0,0,0,0,0c-1.1,0-2,0.9-2,2l-1,56.8
	C-14.7,100.5-13.8,101.4-12.7,101.4C-12.7,101.4-12.7,101.4-12.7,101.4z M7,40.6c-1.2,0-2,0.8-2.1,1.9l-2,62.2c0,2-1.6,3.6-3.6,3.6
	h-38.6c-2,0-3.6-1.6-3.6-3.6l-2-62.1c0-1.1-0.9-1.9-2-1.9c0,0,0,0-0.1,0c-1.1,0-2,1-1.9,2.1l2,62.1c0,4.2,3.4,7.6,7.6,7.6h38.6
	c4.2,0,7.6-3.4,7.6-7.5l2-62.1C8.9,41.6,8.1,40.7,7,40.6z M12,30.6h-64c-1.1,0-2,0.9-2,2c0,1.1,0.9,2,2,2h64c1.1,0,2-0.9,2-2
	S13.1,30.6,12,30.6z M-35.5,27.5c1.1,0,2-0.9,2-2c0-1.1,0.9-2,2-2h23.1c1.1,0,2,0.9,2,2c0,1.1,0.9,2,2,2s2-0.9,2-2c0-3.3-2.7-6-6-6
	h-23.1c-3.3,0-6,2.7-6,6C-37.5,26.6-36.6,27.5-35.5,27.5z"/>
</svg>
