<?xml version="1.0" encoding="utf-8"?>
<!-- Generator: Adobe Illustrator 19.0.0, SVG Export Plug-In . SVG Version: 6.00 Build 0)  -->
<svg version="1.1" id="Calque_1" xmlns="http://www.w3.org/2000/svg" xmlns:xlink="http://www.w3.org/1999/xlink" x="0px" y="0px"
	 viewBox="-70 15.9 100 125" style="enable-background:new -70 15.9 100 125;" xml:space="preserve">
<path d="M8.8,92.5h-57.7c-3.8,0-6.8-3.1-6.8-6.8V46.1c0-3.8,3.1-6.8,6.8-6.8H8.8c3.8,0,6.8,3.1,6.8,6.8v39.6
	C15.7,89.5,12.6,92.5,8.8,92.5z M-48.8,42.3c-2.1,0-3.8,1.7-3.8,3.8v39.6c0,2.1,1.7,3.8,3.8,3.8H8.8c2.1,0,3.8-1.7,3.8-3.8V46.1
	c0-2.1-1.7-3.8-3.8-3.8H-48.8z M3.5,81.5c-0.4,0-0.7-0.1-1-0.4l-14.2-13.3l-6.8,6.6c-0.6,0.6-1.5,0.6-2.1,0l-7.6-7.2L-42.4,81
	c-0.6,0.6-1.5,0.6-2.1,0c-0.6-0.6-0.6-1.5,0-2.1l14.1-13.7l-14.1-13.2c-0.6-0.6-0.6-1.5-0.1-2.1s1.5-0.6,2.1-0.1l22.9,21.5l22-21.4
	c0.6-0.6,1.5-0.6,2.1,0c0.6,0.6,0.6,1.5,0,2.1L-9.6,65.7L4.5,78.9c0.6,0.6,0.6,1.5,0.1,2.1C4.3,81.3,3.9,81.5,3.5,81.5z"/>
</svg>
